<svg xmlns="http://www.w3.org/2000/svg" width="200" height="200" viewBox="0 0 200 200">
  <rect width="200" height="200" fill="#0D1020"/>
  <rect x="1" y="1" width="198" height="198" fill="none" stroke="#C9A84C" stroke-width="1" opacity="0.3"/>
  <!-- Wing arc shape -->
  <path d="M45,105 Q100,60 155,105" fill="none" stroke="#C9A84C" stroke-width="2" opacity="0.6"/>
  <path d="M55,112 Q100,72 145,112" fill="none" stroke="#C9A84C" stroke-width="1" opacity="0.3"/>
  <!-- AC initials -->
  <path d="M78,130 L95,95 L112,130" fill="none" stroke="#C9A84C" stroke-width="2.5" stroke-linejoin="round" opacity="0.75"/>
  <line x1="83" y1="118" x2="107" y2="118" stroke="#C9A84C" stroke-width="1.5" opacity="0.5"/>
  <!-- Outer ring -->
  <circle cx="100" cy="100" r="58" fill="none" stroke="#C9A84C" stroke-width="0.8" opacity="0.2"/>
  <!-- Label -->
  <text x="100" y="168" font-family="Georgia, serif" font-size="9" fill="#C9A84C" text-anchor="middle" letter-spacing="2" opacity="0.85">AIR CHARTER</text>
  <text x="100" y="180" font-family="Georgia, serif" font-size="9" fill="#C9A84C" text-anchor="middle" letter-spacing="2" opacity="0.6">SERVICE</text>
  <!-- Corner marks -->
  <path d="M12,12 L12,24 M12,12 L24,12" stroke="#C9A84C" stroke-width="1" opacity="0.3" fill="none"/>
  <path d="M188,12 L188,24 M188,12 L176,12" stroke="#C9A84C" stroke-width="1" opacity="0.3" fill="none"/>
  <path d="M12,188 L12,176 M12,188 L24,188" stroke="#C9A84C" stroke-width="1" opacity="0.3" fill="none"/>
  <path d="M188,188 L188,176 M188,188 L176,188" stroke="#C9A84C" stroke-width="1" opacity="0.3" fill="none"/>
</svg>
