<svg xmlns="http://www.w3.org/2000/svg" width="200" height="200" viewBox="0 0 200 200">
  <rect width="200" height="200" fill="#0D1020"/>
  <rect x="1" y="1" width="198" height="198" fill="none" stroke="#C9A84C" stroke-width="1" opacity="0.3"/>
  <!-- TAG shield shape -->
  <path d="M100,48 L130,62 L130,95 Q130,118 100,130 Q70,118 70,95 L70,62 Z" fill="none" stroke="#C9A84C" stroke-width="1.5" opacity="0.5"/>
  <!-- T crossbar mark -->
  <line x1="84" y1="75" x2="116" y2="75" stroke="#C9A84C" stroke-width="2.5" opacity="0.8" stroke-linecap="round"/>
  <line x1="100" y1="75" x2="100" y2="105" stroke="#C9A84C" stroke-width="2.5" opacity="0.8" stroke-linecap="round"/>
  <!-- Accent star dot -->
  <circle cx="100" cy="48" r="3" fill="#C9A84C" opacity="0.6"/>
  <!-- Outer ring -->
  <circle cx="100" cy="100" r="58" fill="none" stroke="#C9A84C" stroke-width="0.8" opacity="0.2"/>
  <!-- Label -->
  <text x="100" y="168" font-family="Georgia, serif" font-size="11" fill="#C9A84C" text-anchor="middle" letter-spacing="3" opacity="0.85">TAG AVIATION</text>
  <!-- Corner marks -->
  <path d="M12,12 L12,24 M12,12 L24,12" stroke="#C9A84C" stroke-width="1" opacity="0.3" fill="none"/>
  <path d="M188,12 L188,24 M188,12 L176,12" stroke="#C9A84C" stroke-width="1" opacity="0.3" fill="none"/>
  <path d="M12,188 L12,176 M12,188 L24,188" stroke="#C9A84C" stroke-width="1" opacity="0.3" fill="none"/>
  <path d="M188,188 L188,176 M188,188 L176,188" stroke="#C9A84C" stroke-width="1" opacity="0.3" fill="none"/>
</svg>
