<svg xmlns="http://www.w3.org/2000/svg" width="200" height="200" viewBox="0 0 200 200">
  <rect width="200" height="200" fill="#0D1020"/>
  <rect x="1" y="1" width="198" height="198" fill="none" stroke="#C9A84C" stroke-width="1" opacity="0.3"/>
  <!-- Diagonal speed lines -->
  <line x1="40" y1="70" x2="160" y2="70" stroke="#C9A84C" stroke-width="0.5" opacity="0.15"/>
  <line x1="40" y1="130" x2="160" y2="130" stroke="#C9A84C" stroke-width="0.5" opacity="0.15"/>
  <!-- VJ monogram mark -->
  <path d="M70,60 L100,120 L130,60" fill="none" stroke="#C9A84C" stroke-width="2.5" stroke-linejoin="round" opacity="0.75"/>
  <line x1="85" y1="90" x2="115" y2="90" stroke="#C9A84C" stroke-width="1.5" opacity="0.5"/>
  <path d="M100,120 L100,140" stroke="#C9A84C" stroke-width="2" opacity="0.6"/>
  <!-- Outer ring -->
  <circle cx="100" cy="100" r="58" fill="none" stroke="#C9A84C" stroke-width="0.8" opacity="0.2"/>
  <!-- Label -->
  <text x="100" y="172" font-family="Georgia, serif" font-size="11" fill="#C9A84C" text-anchor="middle" letter-spacing="3" opacity="0.85">VISTAJET</text>
  <!-- Corner marks -->
  <path d="M12,12 L12,24 M12,12 L24,12" stroke="#C9A84C" stroke-width="1" opacity="0.3" fill="none"/>
  <path d="M188,12 L188,24 M188,12 L176,12" stroke="#C9A84C" stroke-width="1" opacity="0.3" fill="none"/>
  <path d="M12,188 L12,176 M12,188 L24,188" stroke="#C9A84C" stroke-width="1" opacity="0.3" fill="none"/>
  <path d="M188,188 L188,176 M188,188 L176,188" stroke="#C9A84C" stroke-width="1" opacity="0.3" fill="none"/>
</svg>
