<svg xmlns="http://www.w3.org/2000/svg" width="200" height="200" viewBox="0 0 200 200">
  <rect width="200" height="200" fill="#0D1020"/>
  <rect x="1" y="1" width="198" height="198" fill="none" stroke="#C9A84C" stroke-width="1" opacity="0.3"/>
  <!-- NJ mark — three horizontal bars with offset -->
  <rect x="58" y="72" width="36" height="4" fill="#C9A84C" opacity="0.7" rx="1"/>
  <rect x="58" y="83" width="36" height="4" fill="#C9A84C" opacity="0.55" rx="1"/>
  <rect x="58" y="94" width="36" height="4" fill="#C9A84C" opacity="0.4" rx="1"/>
  <!-- J vertical -->
  <rect x="106" y="72" width="4" height="26" fill="#C9A84C" opacity="0.7" rx="1"/>
  <path d="M90,98 Q90,112 100,112 Q110,112 110,98" fill="none" stroke="#C9A84C" stroke-width="3" opacity="0.5"/>
  <!-- Diamond accent -->
  <path d="M100,50 L110,60 L100,70 L90,60 Z" fill="none" stroke="#C9A84C" stroke-width="1.2" opacity="0.4"/>
  <!-- Outer ring -->
  <circle cx="100" cy="100" r="58" fill="none" stroke="#C9A84C" stroke-width="0.8" opacity="0.2"/>
  <!-- Label -->
  <text x="100" y="172" font-family="Georgia, serif" font-size="11" fill="#C9A84C" text-anchor="middle" letter-spacing="3" opacity="0.85">NETJETS</text>
  <!-- Corner marks -->
  <path d="M12,12 L12,24 M12,12 L24,12" stroke="#C9A84C" stroke-width="1" opacity="0.3" fill="none"/>
  <path d="M188,12 L188,24 M188,12 L176,12" stroke="#C9A84C" stroke-width="1" opacity="0.3" fill="none"/>
  <path d="M12,188 L12,176 M12,188 L24,188" stroke="#C9A84C" stroke-width="1" opacity="0.3" fill="none"/>
  <path d="M188,188 L188,176 M188,188 L176,188" stroke="#C9A84C" stroke-width="1" opacity="0.3" fill="none"/>
</svg>
